<svg width="1200" height="520" viewBox="0 0 1200 520" fill="none" xmlns="http://www.w3.org/2000/svg" role="img" aria-label="Banner">
  <defs>
    <linearGradient id="b1" x1="0" y1="0" x2="1200" y2="520" gradientUnits="userSpaceOnUse">
      <stop stop-color="#0B1020"/>
      <stop offset="0.55" stop-color="#14104A"/>
      <stop offset="1" stop-color="#0B1020"/>
    </linearGradient>
    <linearGradient id="b2" x1="0" y1="520" x2="1200" y2="0" gradientUnits="userSpaceOnUse">
      <stop stop-color="#5B5CF6" stop-opacity="0.10"/>
      <stop offset="1" stop-color="#F59E0B" stop-opacity="0.12"/>
    </linearGradient>
    <filter id="blurGlow" x="-40" y="-40" width="1280" height="600" filterUnits="userSpaceOnUse" color-interpolation-filters="sRGB">
      <feGaussianBlur stdDeviation="24" />
    </filter>
  </defs>
  <rect width="1200" height="520" fill="url(#b1)"/>
  <rect width="1200" height="520" fill="url(#b2)"/>

  <g filter="url(#blurGlow)" opacity="0.9">
    <circle cx="290" cy="120" r="140" fill="#5B5CF6" fill-opacity="0.24"/>
    <circle cx="970" cy="420" r="180" fill="#F59E0B" fill-opacity="0.14"/>
  </g>

  <g opacity="0.25">
    <path d="M-20 420C180 360 340 320 520 330C720 342 860 420 1220 290" stroke="white" stroke-width="2"/>
    <path d="M-10 460C210 400 380 360 560 372C760 385 900 460 1230 330" stroke="white" stroke-opacity="0.6" stroke-width="2"/>
  </g>

  <g>
    <text x="64" y="208" fill="white" font-family="Inter, system-ui, -apple-system, Segoe UI" font-weight="800" font-size="56" letter-spacing="-0.02em">
      Challan Day Live
    </text>
    <text x="64" y="262" fill="rgba(255,255,255,0.75)" font-family="Inter, system-ui, -apple-system, Segoe UI" font-weight="600" font-size="28">
      Pay in seconds " Save more with Park+
    </text>
    <rect x="64" y="300" width="300" height="54" rx="16" fill="rgba(255,255,255,0.08)" stroke="rgba(255,255,255,0.10)"/>
    <text x="86" y="336" fill="rgba(255,255,255,0.92)" font-family="Inter, system-ui, -apple-system, Segoe UI" font-weight="700" font-size="20">
      Unlock 50% OFF
    </text>
  </g>
</svg>
