<svg width="172" height="44" viewBox="0 0 172 44" fill="none" xmlns="http://www.w3.org/2000/svg" role="img" aria-label="great.cards">
  <defs>
    <linearGradient id="gc_g" x1="0" y1="0" x2="172" y2="44" gradientUnits="userSpaceOnUse">
      <stop stop-color="#5B5CF6"/>
      <stop offset="1" stop-color="#22C55E"/>
    </linearGradient>
  </defs>
  <rect x="1" y="1" width="170" height="42" rx="12" stroke="rgba(255,255,255,0.0)" fill="rgba(255,255,255,0.0)"/>
  <g>
    <path d="M24.1 31.8C18.8 31.8 15.2 28.4 15.2 23.1C15.2 17.8 18.8 14.4 24.1 14.4C28.1 14.4 31 16.3 32.2 19.3L27.6 20.9C27 19.5 25.8 18.7 24.1 18.7C21.6 18.7 20.1 20.3 20.1 23.1C20.1 25.9 21.6 27.5 24.2 27.5C26 27.5 27.3 26.7 27.9 25.2H24.2V21.7H32.8V23.1C32.8 28.5 29.4 31.8 24.1 31.8Z" fill="#0B0B14"/>
    <path d="M35.9 31.4V14.8H40.6V17C41.6 15.5 43.2 14.6 45.3 14.6C49.2 14.6 51.8 17.4 51.8 21.6V31.4H46.9V22.4C46.9 20.2 45.8 18.9 43.9 18.9C42 18.9 40.8 20.2 40.8 22.4V31.4H35.9Z" fill="#0B0B14"/>
    <path d="M62.2 31.8C56.9 31.8 53.3 28.4 53.3 23.1C53.3 17.8 56.9 14.4 62.2 14.4C66 14.4 69 16.1 70.6 19.2L66.3 21.2C65.5 19.7 64.1 18.8 62.2 18.8C59.7 18.8 58.2 20.4 58.2 23.1C58.2 25.8 59.7 27.4 62.2 27.4C64.1 27.4 65.6 26.5 66.4 24.9L70.7 26.8C69.1 30 66.1 31.8 62.2 31.8Z" fill="#0B0B14"/>
    <path d="M76.5 30.9C74.7 30.9 73.4 29.6 73.4 27.9C73.4 26.2 74.7 25 76.5 25C78.2 25 79.5 26.2 79.5 27.9C79.5 29.6 78.2 30.9 76.5 30.9Z" fill="url(#gc_g)"/>
    <path d="M90.3 31.4V15.1H95.2V31.4H90.3ZM92.8 13.2C91.1 13.2 89.8 12 89.8 10.4C89.8 8.8 91.1 7.6 92.8 7.6C94.5 7.6 95.8 8.8 95.8 10.4C95.8 12 94.5 13.2 92.8 13.2Z" fill="#0B0B14"/>
    <path d="M107.3 31.8C102.4 31.8 98.9 28.4 98.9 23.1C98.9 17.8 102.4 14.4 107.3 14.4C110.1 14.4 112.2 15.5 113.5 17.3V14.8H118.3V31.4H113.5V28.9C112.2 30.7 110.1 31.8 107.3 31.8ZM108.6 27.4C111.1 27.4 112.7 25.8 112.7 23.1C112.7 20.4 111.1 18.8 108.6 18.8C106.1 18.8 103.9 20.4 103.9 23.1C103.9 25.8 106.1 27.4 108.6 27.4Z" fill="#0B0B14"/>
    <path d="M121.9 31.4V14.8H126.7V17.3C127.7 15.6 129.5 14.6 132 14.6V19.2C129 18.9 126.8 20.2 126.8 23.4V31.4H121.9Z" fill="#0B0B14"/>
    <path d="M140.9 31.8C136 31.8 132.6 28.4 132.6 23.1C132.6 17.8 136 14.4 140.9 14.4C143.7 14.4 145.8 15.5 147.1 17.3V8.5H152V31.4H147.1V28.9C145.8 30.7 143.7 31.8 140.9 31.8ZM142.2 27.4C144.7 27.4 146.4 25.8 146.4 23.1C146.4 20.4 144.7 18.8 142.2 18.8C139.7 18.8 137.5 20.4 137.5 23.1C137.5 25.8 139.7 27.4 142.2 27.4Z" fill="#0B0B14"/>
  </g>
</svg>

