<svg width="1663" height="486" viewBox="0 0 1663 486" fill="none" xmlns="http://www.w3.org/2000/svg">
<path d="M454.667 2.06641C475.285 2.06658 492 18.781 492 39.3994V101.622C492 103.913 490.142 105.771 487.852 105.771H160.184C128.991 105.771 103.704 131.057 103.704 162.25V325.142C103.704 356.335 128.991 381.622 160.184 381.622H492V447.992C492 468.611 475.285 485.325 454.667 485.325H384.667V436.005C384.667 425.859 373.177 419.977 364.946 425.909L282.507 485.325H156.96C70.2734 485.325 0 415.052 0 328.365V159.026C0.00010866 72.3399 70.2734 2.06643 156.96 2.06641H454.667Z" fill="white"/>
<rect x="391.408" y="243.695" width="100.593" height="70.5185" rx="15.5556" fill="white"/>
<rect x="1564" y="170.066" width="65" height="46" rx="12" fill="white"/>
<rect x="1316.07" y="471.142" width="54.5738" height="98.6973" rx="13.9337" transform="rotate(180 1316.07 471.142)" fill="white"/>
<path d="M1280.14 267.422C1271.12 267.422 1263.82 274.731 1263.82 283.746V310.952C1263.82 311.954 1264.63 312.766 1265.63 312.766H1385.68C1399.32 312.766 1410.37 323.822 1410.37 337.461V408.685C1410.37 422.323 1399.32 433.38 1385.68 433.38H1263.82V462.399C1263.82 471.415 1271.12 478.724 1280.14 478.724H1387.09C1424.99 478.724 1455.72 447.997 1455.72 410.094V336.052C1455.72 298.149 1424.99 267.422 1387.09 267.422H1280.14Z" fill="white"/>
<path d="M1280.14 267.422L1280.14 265.282H1280.14V267.422ZM1263.82 310.952L1261.68 310.952V310.952H1263.82ZM1265.63 312.766V314.905V314.905V312.766ZM1385.68 312.766V310.626H1385.68L1385.68 312.766ZM1410.37 337.461L1412.51 337.461V337.461H1410.37ZM1410.37 408.685H1412.51V408.685L1410.37 408.685ZM1385.68 433.38L1385.68 435.519H1385.68V433.38ZM1263.82 433.38H1261.68V431.241H1263.82V433.38ZM1280.14 478.724V480.863H1280.14L1280.14 478.724ZM1280.14 267.422L1280.14 269.561C1272.31 269.561 1265.95 275.912 1265.95 283.746H1263.82H1261.68C1261.68 273.549 1269.94 265.283 1280.14 265.282L1280.14 267.422ZM1263.82 283.746H1265.95V310.952H1263.82H1261.68V283.746H1263.82ZM1263.82 310.952L1265.95 310.952C1265.95 310.772 1265.81 310.626 1265.63 310.626V312.766V314.905C1263.45 314.905 1261.68 313.135 1261.68 310.952L1263.82 310.952ZM1265.63 312.766V310.626H1385.68V312.766V314.905H1265.63V312.766ZM1385.68 312.766L1385.68 310.626C1400.5 310.626 1412.51 322.641 1412.51 337.461L1410.37 337.461L1408.23 337.461C1408.23 325.004 1398.13 314.905 1385.68 314.905L1385.68 312.766ZM1410.37 337.461H1412.51V408.685H1410.37H1408.23V337.461H1410.37ZM1410.37 408.685L1412.51 408.685C1412.51 423.505 1400.5 435.519 1385.68 435.519L1385.68 433.38L1385.68 431.241C1398.13 431.24 1408.23 421.142 1408.23 408.685L1410.37 408.685ZM1385.68 433.38V435.519H1263.82V433.38V431.241H1385.68V433.38ZM1263.82 433.38H1265.95V462.399H1263.82H1261.68V433.38H1263.82ZM1263.82 462.399H1265.95C1265.95 470.233 1272.31 476.584 1280.14 476.584L1280.14 478.724L1280.14 480.863C1269.94 480.863 1261.68 472.596 1261.68 462.399H1263.82ZM1280.14 478.724V476.584H1387.09V478.724V480.863H1280.14V478.724ZM1387.09 478.724V476.584C1423.81 476.584 1453.58 446.815 1453.58 410.094H1455.72H1457.86C1457.86 449.178 1426.17 480.863 1387.09 480.863V478.724ZM1455.72 410.094H1453.58V336.052H1455.72H1457.86V410.094H1455.72ZM1455.72 336.052H1453.58C1453.58 299.33 1423.81 269.561 1387.09 269.561V267.422V265.282C1426.17 265.282 1457.86 296.967 1457.86 336.052H1455.72ZM1387.09 267.422V269.561H1280.14V267.422V265.282H1387.09V267.422Z" fill="white"/>
<path d="M746.123 5.03955C755.138 5.03955 762.447 12.3484 762.447 21.3638V48.5698C762.447 49.5713 761.635 50.3831 760.634 50.3833H663.809C650.17 50.3834 639.113 61.4398 639.113 75.0786V146.302C639.113 159.941 650.17 170.997 663.809 170.998H785.67V200.017C785.67 209.032 778.362 216.341 769.347 216.341H662.399C624.496 216.341 593.77 185.615 593.77 147.711V73.6694C593.77 35.7663 624.496 5.03955 662.399 5.03955H746.123Z" fill="white"/>
<path d="M762.447 48.5698L767.487 48.5707V48.5698H762.447ZM760.634 50.3833V55.4227L760.635 55.4227L760.634 50.3833ZM663.809 50.3833V45.3439L663.809 45.3439L663.809 50.3833ZM639.113 75.0786L634.074 75.0786V75.0786H639.113ZM639.113 146.302H634.074L634.074 146.302L639.113 146.302ZM663.809 170.998L663.809 176.037H663.809V170.998ZM785.67 170.998H790.709V165.958H785.67V170.998ZM769.347 216.341V221.381H769.347L769.347 216.341ZM746.123 5.03955V10.0789C752.355 10.0789 757.408 15.1316 757.408 21.3638H762.447H767.487C767.487 9.56526 757.922 0.000181198 746.123 0.000181198V5.03955ZM762.447 21.3638H757.408V48.5698H762.447H767.487V21.3638H762.447ZM762.447 48.5698L757.408 48.5689C757.408 46.7878 758.852 45.3443 760.633 45.3439L760.634 50.3833L760.635 55.4227C764.419 55.4219 767.486 52.3547 767.487 48.5707L762.447 48.5698ZM760.634 50.3833V45.3439H663.809V50.3833V55.4227H760.634V50.3833ZM663.809 50.3833L663.809 45.3439C647.387 45.344 634.074 58.6566 634.074 75.0786L639.113 75.0786L644.153 75.0786C644.153 64.2229 652.953 55.4227 663.809 55.4227L663.809 50.3833ZM639.113 75.0786H634.074V146.302H639.113H644.153V75.0786H639.113ZM639.113 146.302L634.074 146.302C634.074 162.724 647.387 176.037 663.809 176.037L663.809 170.998L663.809 165.958C652.953 165.958 644.153 157.158 644.153 146.302L639.113 146.302ZM663.809 170.998V176.037H785.67V170.998V165.958H663.809V170.998ZM785.67 170.998H780.631V200.017H785.67H790.709V170.998H785.67ZM785.67 200.017H780.631C780.631 206.249 775.578 211.302 769.347 211.302L769.347 216.341L769.347 221.381C781.145 221.38 790.709 211.815 790.709 200.017H785.67ZM769.347 216.341V211.302H662.399V216.341V221.381H769.347V216.341ZM662.399 216.341V211.302C627.279 211.302 598.809 182.831 598.809 147.711H593.77H588.73C588.73 188.398 621.713 221.381 662.399 221.381V216.341ZM593.77 147.711H598.809V73.6694H593.77H588.73V147.711H593.77ZM593.77 73.6694H598.809C598.809 38.5495 627.279 10.0789 662.399 10.0789V5.03955V0.000181198C621.713 0.000181198 588.73 32.9832 588.73 73.6694H593.77ZM662.399 5.03955V10.0789H746.123V5.03955V0.000181198H662.399V5.03955Z" fill="white"/>
<rect x="738.396" y="113.509" width="52.2515" height="61.5407" rx="6.80155" fill="white"/>
<path d="M746.123 267.422C755.138 267.422 762.447 274.731 762.447 283.746V316.253C762.447 317.254 761.635 318.066 760.634 318.066H667.695C654.056 318.066 643 329.123 643 342.762V404.371C643 418.01 654.056 429.066 667.695 429.066H785.67V462.399C785.67 471.415 778.362 478.723 769.347 478.724H662.399C624.496 478.724 593.77 447.997 593.77 410.094V336.052C593.77 298.149 624.496 267.422 662.399 267.422H746.123Z" fill="white"/>
<path d="M762.447 316.253L764.587 316.253V316.253H762.447ZM760.634 318.066V320.206H760.634L760.634 318.066ZM643 342.762L640.861 342.762V342.762H643ZM643 404.371H640.861V404.371L643 404.371ZM785.67 429.066H787.809V426.927H785.67V429.066ZM769.347 478.724V480.863H769.347L769.347 478.724ZM746.123 267.422V269.561C753.957 269.561 760.308 275.912 760.308 283.746H762.447H764.587C764.587 273.549 756.32 265.282 746.123 265.282V267.422ZM762.447 283.746H760.308V316.253H762.447H764.587V283.746H762.447ZM762.447 316.253L760.308 316.253C760.308 316.073 760.454 315.927 760.633 315.927L760.634 318.066L760.634 320.206C762.817 320.205 764.586 318.436 764.587 316.253L762.447 316.253ZM760.634 318.066V315.927H667.695V318.066V320.206H760.634V318.066ZM667.695 318.066V315.927C652.875 315.927 640.861 327.941 640.861 342.762L643 342.762L645.139 342.762C645.139 330.304 655.238 320.206 667.695 320.206V318.066ZM643 342.762H640.861V404.371H643H645.139V342.762H643ZM643 404.371L640.861 404.371C640.861 419.191 652.875 431.206 667.695 431.206V429.066V426.927C655.238 426.927 645.139 416.828 645.139 404.371L643 404.371ZM667.695 429.066V431.206H785.67V429.066V426.927H667.695V429.066ZM785.67 429.066H783.531V462.399H785.67H787.809V429.066H785.67ZM785.67 462.399H783.531C783.531 470.233 777.18 476.584 769.347 476.584L769.347 478.724L769.347 480.863C779.544 480.863 787.809 472.596 787.809 462.399H785.67ZM769.347 478.724V476.584H662.399V478.724V480.863H769.347V478.724ZM662.399 478.724V476.584C625.678 476.584 595.909 446.815 595.909 410.094H593.77H591.63C591.63 449.178 623.315 480.863 662.399 480.863V478.724ZM593.77 410.094H595.909V336.052H593.77H591.63V410.094H593.77ZM593.77 336.052H595.909C595.909 299.33 625.678 269.561 662.399 269.561V267.422V265.282C623.315 265.282 591.63 296.967 591.63 336.052H593.77ZM662.399 267.422V269.561H746.123V267.422V265.282H662.399V267.422Z" fill="white"/>
<path d="M874.889 219.172H847.89C832.499 219.172 820.022 206.696 820.022 191.305V29.9339C820.022 14.5431 832.499 2.06641 847.89 2.06641H909.402C965.448 2.06641 999.961 27.4348 999.961 75.8116V80.5313C999.961 111.799 985.507 132.743 960.138 143.952L1012.94 219.172H949.814L906.157 153.097H874.889V219.172ZM912.646 48.0834H874.889V110.914H912.646C931.82 110.914 944.504 98.8201 944.504 79.6464C944.504 60.4726 931.82 48.0834 912.646 48.0834Z" fill="white"/>
<path d="M1170.53 219.172H1060.35C1044.95 219.172 1032.48 206.696 1032.48 191.305V31.7038C1032.48 16.313 1044.95 3.8363 1060.35 3.8363H1154.83C1162.52 3.8363 1168.76 10.0747 1168.76 17.77V48.6734H1085.57V87.3159H1164.33V132.153H1085.57V174.335H1156.6C1164.29 174.335 1170.53 180.574 1170.53 188.269V219.172Z" fill="white"/>
<path d="M1258.85 199.5C1255.26 211.193 1244.45 219.172 1232.22 219.172H1197.93L1260.75 23.1973C1264.45 11.6618 1275.18 3.8363 1287.29 3.8363H1334.74C1346.76 3.8363 1357.42 11.5331 1361.2 22.9348L1426.25 219.172H1390.08C1377.9 219.172 1367.13 211.264 1363.49 199.644L1353.98 169.321H1268.14L1258.85 199.5ZM1281.71 124.483H1339.82L1317.55 53.2726C1316.58 50.1853 1313.72 48.0834 1310.49 48.0834C1307.24 48.0834 1304.36 50.2099 1303.41 53.3224L1281.71 124.483Z" fill="white"/>
<path d="M1522.32 219.172H1467.45V51.6232H1408.46V31.7038C1408.46 16.313 1420.93 3.8363 1436.32 3.8363H1553.45C1568.84 3.8363 1581.31 16.313 1581.31 31.7038V51.6232H1522.32V219.172Z" fill="white"/>
<path d="M865.892 461.919C862.294 473.612 851.491 481.591 839.257 481.591H805.188L867.736 286.464C871.434 274.929 882.16 267.103 894.274 267.103H941.38C953.392 267.103 964.052 274.8 967.832 286.202L1032.6 481.591H996.658C984.479 481.591 973.711 473.683 970.067 462.063L960.619 431.936H875.118L865.892 461.919ZM888.633 387.275H946.516L924.333 316.345C923.371 313.27 920.523 311.176 917.301 311.176C914.059 311.176 911.199 313.294 910.253 316.394L888.633 387.275Z" fill="white"/>
<path d="M1105.48 481.591H1078.7C1063.31 481.591 1050.83 469.115 1050.83 453.724V293.208C1050.83 277.817 1063.31 265.34 1078.7 265.34H1139.86C1195.69 265.34 1230.06 290.609 1230.06 338.795V343.496C1230.06 374.641 1215.67 395.502 1190.4 406.667L1242.99 481.591H1180.11L1136.63 415.776H1105.48V481.591ZM1143.09 311.176H1105.48V373.759H1143.09C1162.19 373.759 1174.82 361.713 1174.82 342.615C1174.82 323.516 1162.19 311.176 1143.09 311.176Z" fill="white"/>
<path d="M1574.86 485.067C1515.44 485.067 1484.43 455.213 1484.43 413.476H1522.67C1530.36 413.476 1536.14 420.243 1540.33 426.701C1545.72 435.024 1557.05 440.431 1574.86 440.431C1597.18 440.431 1610.51 431.446 1610.51 416.954C1610.51 404.781 1600.95 398.115 1576.31 396.086L1562.69 394.926C1518.92 391.158 1491.1 366.522 1491.1 327.394C1491.1 285.947 1521.82 261.31 1569.93 261.31C1621.81 261.31 1651.38 289.425 1651.38 331.162H1613.14C1605.45 331.162 1599.6 324.416 1595.43 317.947C1590.79 310.749 1582.03 305.946 1569.93 305.946C1552.25 305.946 1543.27 315.22 1543.27 327.394C1543.27 338.118 1549.64 346.813 1567.9 348.262L1581.53 349.422C1628.77 353.479 1662.68 376.087 1662.68 416.954C1662.68 458.401 1629.64 485.067 1574.86 485.067Z" fill="white"/>
</svg>
